# xmcd
#
# Track frame offsets:
#	183
#	9895
#	22125
#	32633
#	43575
#	55430
#	69750
#	81443
#	91120
#	103070
#	115275
#	125338
#	136875
#	149393
#	159530
#	170848
#	185615
#	196040
#	209023
#	219653
#	231168
#	242493
#	254105
#	267530
#	279375
#	289960
#	303688
#
# Disc length: 4212 seconds
#
# Revision: 1819044181
# Processed by: cddbd v1.5.2PL0 Copyright (c) Steve Scherf et al.
# Submitted via: EZCDAudioConverter 8.3.2.1
#
DISCID=9c10721b
DTITLE=Various Artist - CAPITOL CLASSICS 1960'S
DYEAR=1991
DGENRE=Country
TTITLE0=HANK THOMPSON - A SIX PACK TO GO
TTITLE1=JEANNE BLACK - HE'LL HAVE TO STAY
TTITLE2=FERLIN HUSKY - WINGS OF A DOVE
TTITLE3=FARON OUNG - HELLO WALLS
TTITLE4=WANDA JACKSON - RIGHT OR WRONG
TTITLE5=TEX RITTER - I DREAMED OF A HILLBILLY HEAVEN
TTITLE6=WANDA JACKSON - IN THE MIDDLE OF A HEARTACHE
TTITLE7=ROSE MADDOX - SING A LITTLE SONG OF A HEARTACHE
TTITLE8=THE LOUVIN BROTHERS - MUST YOU THROW DIRT IN MY FACE
TTITLE9=ROY CLARK - THE TIPS OF MY FINGERS
TTITLE10=JEAN SHEPARD - SECOND FIDDLE (TO AN OLD GUITAR)
TTITLE11=CHARLIE LOUVIN - I DON'T LOVE YOU ANYMORE
TTITLE12=BONNIE OWENS and MERLE HAGGARD - JUST BETWEEN THE TWO OF US
TTITLE13=SONNY JAMES and THE SOUTHERN GENTLEMEN - YOU'RE THE ONLY WORLD I KNOW
TTITLE14=MERLE HAGGARD - (MY FRIENDS ARE GONNA BE) STRANGERS
TTITLE15=DICK CURLESS - A TOMBSTONE EVERY MILE
TTITLE16=JODY MILLER - QUEEN OF THE HOUSE
TTITLE17=TENNESSEE ERNIE FORD - HICKTOWN
TTITLE18=IRA LOUVIN - YODEL, SWEET MOLLY
TTITLE19=JEAN SHEPARD and RAY PILLOW - I'LL TAKE THE DOG
TTITLE20=GLEN CAMPBELL - BURNING BRIDGES
TTITLE21=WYNN STEWART - IT'S SUCH A PRETTY WORLD TODA
TTITLE22=GLEN CAMPBELL - GENTLE ON MY MIND
TTITLE23=SONNY JAMES and THE SOUTHERN GENTLEMEN - BORN TO BE WITH YOU
TTITLE24=JOHNNY and JONIE MOSBY - JUST HOLD MY HAND
TTITLE25=BILLIE JO SPEARS - MR. WALKER, I'TS ALL OVER
TTITLE26=MERLE HAGGARD - OKIE FROM MUKOGEE
EXTD=
EXTT0=
EXTT1=
EXTT2=
EXTT3=
EXTT4=
EXTT5=
EXTT6=
EXTT7=
EXTT8=
EXTT9=
EXTT10=
EXTT11=
EXTT12=
EXTT13=
EXTT14=
EXTT15=
EXTT16=
EXTT17=
EXTT18=
EXTT19=
EXTT20=
EXTT21=
EXTT22=
EXTT23=
EXTT24=
EXTT25=
EXTT26=
PLAYORDER=
